<?xml version="1.0" standalone="no"?>
<!DOCTYPE svg PUBLIC "-//W3C//DTD SVG 1.1//EN" "http://www.w3.org/Graphics/SVG/1.1/DTD/svg11.dtd" >
<svg xmlns="http://www.w3.org/2000/svg">
<metadata>Generated by IcoMoon</metadata>
<defs>
<font id="icomoon" horiz-adv-x="1024">
<font-face units-per-em="1024" ascent="960" descent="-64" />
<missing-glyph horiz-adv-x="1024" />
<glyph unicode="&#x20;" horiz-adv-x="512" d="" />
<glyph unicode="&#xe900;" glyph-name="mouse" d="M762.912 271.52c-0.68 14.44-2.936 28.832-3.36 43.256-0.48 14.616-2.8 28.672-6.752 42.752-3.896 13.88-6.88 28.16-8.56 42.48-3.376 28.128-9.904 55.408-21.040 81.312-10.76 25.040-22.704 49.576-34.88 73.96-15.040 30.216-36.352 55.52-62.76 76.576-5.336 4.24-11.36 8.096-15.36 13.408-9.416 12.544-20.352 22.72-34.928 28.776-1.568 0.64-2.864 1.88-4.16 2.984-7.6 6.48-12.424 13.8-8.96 24.56 1.568 4.8 2.016 10 2.512 15.064 1.28 13.224-3.344 23.808-15.824 29.232-9.56 4.16-14.048 10.88-16.72 20.736-5.52 20.48-19.296 33.744-39.56 39.936-5.624 1.704-11.6 2.8-17.464 3.296-18.080 1.544-35.304-1.968-52.64-7.584-32.096-10.4-58.936 7.76-61.44 41.24-1.44 19.408-2.992 39.168 8.32 57.152 4.080 6.504-0.176 13.648-7.68 15.632-23.84 6.32-34.72 0.080-41.056-23.72-0.88-3.28-1.264-6.72-1.504-10.112-1.88-26.736 1.88-52.76 11.096-77.856 2.304-6.264 5.496-13.144 10.36-17.36 20.56-17.744 43.544-29.944 72.048-24.864 10.032 1.792 20.16 3.816 29.696 7.256 14.184 5.152 28.56 4.376 42.96 2.984 10.032-0.936 18.64-10.2 20.24-20.416 0.36-2.304-0.344-5.16-1.552-7.168-1.72-2.84-4.064-5.48-6.64-7.56-10.944-8.8-14.76-20.416-14.128-33.96 0.12-2.56-0.16-5.152 0.104-7.68 1.24-11.12-4.344-17.576-14.12-21.504-5.52-2.256-10.96-4.736-16.24-7.52-6-3.176-12.112-6.352-17.6-10.304-26.64-19.2-47.816-43.44-65.24-71.216-15.472-24.664-26.744-51.36-38.24-77.952-23.44-54.080-41.96-109.48-50.32-168.296-6.936-48.88-3.584-96.928 4.96-144.88 7.76-43.52 27.616-82.16 52.128-118.504 30.744-45.6 72.256-76.4 125.52-91.016 3.040-0.8 5.664-3.104 8.48-4.72h81.92c2.72 1.712 5.264 3.888 8.192 5.096 36.96 14.96 69.072 36.752 95.576 66.752 15.216 17.256 31.136 33.92 46.384 51.152 9.56 10.84 19.968 21.4 27.36 33.664 24.96 41.408 33.136 87.136 30.848 134.944zM533.536 627.6c0.48 5.36 4.24 9.976 9.216 10.928 17.76 3.376 33.792 0.84 46.76-13.2 19.696-21.424 35.776-45.576 50.584-70.44 21.36-35.896 39.12-73.712 51.896-113.56 5.168-16.080 8.64-32.936 10.656-49.728 1.056-8.64 7.296-17.6 1.12-26.68l-25.056-2.176c-0.040 0.4-0.080 0.816-0.080 1.24-7.68-0.368-15.456-0.040-22.976-1.2-34.696-5.36-69.664-3.456-104.536-4.344-9.864-0.256-12.080 1.36-13.28 11.44-1.84 15.144-2.96 30.456-3.312 45.728-0.112 4.616 3.312 9.312 5.176 13.92 0.28 0.784 0.96 1.44 1.6 1.976 21.376 17.728 20.744 41.472 17.76 65.704-1.384 11.344-6.4 21.36-15.056 28.832-8.64 7.496-10.64 16.688-10.48 27.44 0.24 21.304-0.224 42.616-0.32 63.92 0 3.4 0 6.8 0.296 10.192zM521.336 704.584c1.648-1.28 2.856-4.184 2.816-6.32-0.104-3.232-1.568-6.352-6.84-6.24-0.904 1.28-2.96 2.904-3.176 4.744-0.432 3.792 5.096 9.44 7.184 7.824zM335.896 376.72c9.68 41.408 20.8 82.376 37.472 121.584 9.656 22.672 20.48 44.832 30.32 67.44 7.696 17.656 20.88 30.88 34.448 43.76 2.984 2.848 6.912 5.024 10.784 6.52 15.824 6.104 31.76 11.896 47.744 17.616 2.76 0.984 7.408-2.544 7.392-5.496 0-5.040 0.496-10.344-0.824-15.080-5.56-19.8-6.664-40.16-8.608-60.416-0.72-7.28-2.816-12.76-9.616-16.592-26.896-15.136-29.92-41.28-30.464-68.24-0.080-5.024 1.552-10.080 2.352-15.12 2.4-15.248 9.016-27.36 24.528-32.784 8.32-2.928 11.968-8.848 11.92-17.52-0.104-13.6 0.16-27.216-0.12-40.824-0.112-6.424-4.816-11.496-11.088-11.84-8.464-0.48-16.976-0.128-25.472-0.128 0-0.4 0-0.8-0.016-1.176-6.776 0.344-13.696 0.024-20.36 1.16-27 4.56-54.24 3.76-81.44 4.352-3.392 0.096-6.8 0.024-10.184 0.32-6.352 0.608-10.384 5.624-9.984 12.4 0.2 3.384 0.504 6.816 1.28 10.080zM709.84 208.616c-4.64-10.016-7.696-20.752-11.776-31.040-7.92-20.016-19.176-38.24-33.36-54.184-33.76-37.944-73.2-68.848-119.040-91.2-8.368-4.096-17.16-7.552-26-10.616-6.72-2.32-13.784-2.16-19.064 3.464-6.4 6.84-12.936 6.424-20.736 2.56-5.816-2.936-11.544-0.24-16.984 2.56-4.264 2.24-6.512 5.68-5.784 10.28 0.8 5.008 2.784 9.84 3.536 14.848 0.608 4.128 1.296 8.856-0.144 12.48-1.392 3.504-5.040 6.776-8.496 8.624-4.104 2.2-8.416 0.184-11.28-3.416-3.68-4.664-6.8-9.76-10.496-14.4-0.736-0.96-3.264-1.52-4.32-0.96-1.040 0.52-1.888 2.8-1.664 4.12 1.536 9.232 3.84 18.344 5.016 27.632 1.584 12.64 2.744 25.392 3.312 38.136 0.184 3.888-2 8-3.568 11.824-1.168 2.904-6.912 3.16-8.56 0.512-2.28-3.56-4.64-7.12-6.376-10.96-4.224-9.296-7.984-18.8-12.264-28.080-0.744-1.64-2.936-2.64-4.456-3.96-0.48 2.456-1.424 4.96-1.2 7.36 0.264 3.336 1.32 6.64 2.16 9.92 1.712 6.56 3.736 13.088 5.168 19.736 1.072 4.96 1.744 10.040 2 15.12 0.264 4.376-0.848 8.592-5.776 10.144-4.584 1.44-8.368-0.6-11.44-3.68-2.992-3.016-5.68-6.368-8.224-9.76-2-2.704-3.56-5.76-5.488-8.56-0.448-0.656-1.88-1.44-2.080-1.256-1.12 0.92-2.736 2.056-2.864 3.28-1.744 16.68 4.52 31.84 9.6 47.12 3.44 10.48 8.2 20.544 12.24 30.848 1.256 3.152 3.080 6.576 2.72 9.648-0.36 2.84-2.848 5.976-5.28 7.792-1.52 1.12-5.336 0.88-6.96-0.288-11.84-8.528-21.6-19.176-30.192-30.96-1.92-2.656-4.288-5.040-6.8-7.176-0.464-0.4-3.584 0.992-3.68 1.76-0.48 4.104-1.216 8.48-0.296 12.4 2.88 12.416 6.456 24.704 9.776 37.040 1.312 4.904 3.152 9.76 3.864 14.752 1.080 7.52 2.84 15.344-1.24 22.536-4 7.056-11.568 5.976-18.080 7.36-5.336 1.144-5.52 5.6-5.552 9.96-0.080 4.456 0.744 8.768 5.264 10.544 3.040 1.232 6.624 1.536 9.968 1.56 14.464 0.176 28.96 0.096 43.44 0.096 24.704-3.024 49.36-4.264 73.784 2 5.656 1.44 11.872 1.040 17.816 1.016 36.672-0.144 73.36-0.176 110.016-0.736 19.576-0.272 39.16-1.32 58.72-2.4 18.688-0.984 37.328-3.624 56 1.088 4.24 1.056 8.352-2 10.080-6.256 1.6-3.864 2.824-8.056 3.2-12.2 0.88-9.328 1.28-18.72 1.624-28.080 0.696-20.592-0.88-40.776-9.736-59.952z" />
<glyph unicode="&#xe901;" glyph-name="info" d="M512 960c-282.317 0-512-229.686-512-512.003s229.683-511.997 512-511.997 512 229.68 512 511.997c0 282.317-229.683 512.003-512 512.003zM512 29.091c-230.99 0-418.909 187.92-418.909 418.906s187.92 418.912 418.909 418.912 418.909-187.926 418.909-418.912c0-230.986-187.923-418.906-418.909-418.906zM511.994 742.788c-34.214 0-62.048-27.853-62.048-62.089 0-34.205 27.834-62.033 62.048-62.033s62.048 27.828 62.048 62.033c0 34.236-27.834 62.089-62.048 62.089zM512 525.576c-25.706 0-46.545-20.84-46.545-46.545v-279.273c0-25.706 20.84-46.545 46.545-46.545s46.545 20.84 46.545 46.545v279.273c0 25.706-20.84 46.545-46.545 46.545z" />
<glyph unicode="&#xe902;" glyph-name="antenna" d="M633.822 304.077c3.226-3.18 7.584-4.947 12.114-4.912s8.86 1.87 12.036 5.1c79.036 80.313 78.347 209.388-1.543 288.852s-208.966 79.464-288.856 0c-79.89-79.464-80.579-208.539-1.543-288.852 6.674-6.27 17.107-6.155 23.642 0.26s6.841 16.845 0.695 23.633c-65.871 66.925-65.301 174.492 1.274 240.716s174.144 66.224 240.719 0c66.576-66.224 67.145-173.791 1.274-240.716-6.577-6.71-6.493-17.474 0.188-24.081zM689.681 201.557c3.785-0.008 7.462 1.254 10.445 3.584 103.838 80.436 145.049 217.991 102.544 342.271s-159.322 207.788-290.67 207.788-248.165-83.507-290.67-207.788-1.294-261.835 102.544-342.271c4.789-4.059 11.42-5.161 17.265-2.87s9.959 7.608 10.713 13.84-1.976 12.376-7.106 15.995c-92.311 71.493-128.954 193.767-91.175 304.245s141.619 184.713 258.378 184.713 220.599-74.235 258.378-184.713c37.779-110.478 1.136-232.752-91.175-304.245-5.765-4.474-8.047-12.118-5.68-19.020s8.862-11.536 16.159-11.529zM732.518 106.155c3.419-0.005 6.758 1.031 9.574 2.97 148.795 101.033 214.274 287.311 161.424 459.225s-211.663 289.24-391.517 289.24-338.667-117.326-391.517-289.24c-52.85-171.914 12.63-358.192 161.424-459.225 7.804-5.302 18.429-3.273 23.731 4.531s3.273 18.429-4.531 23.731c-136.407 92.606-196.443 263.364-148.002 420.959s194.023 265.151 358.895 265.151 310.454-107.556 358.895-265.151c48.441-157.595-11.595-328.353-148.002-420.959-6.201-4.215-8.924-11.984-6.712-19.148s8.84-12.046 16.338-12.033zM512 960c-228.37 0.094-429.191-151.067-492.283-370.549s26.801-454.212 220.36-575.405c5.164-3.247 11.669-3.492 17.063-0.643s8.858 8.36 9.088 14.455c0.23 6.096-2.81 11.851-7.975 15.098-180.555 113.144-264.386 332.157-205.524 536.941s246.194 345.856 459.271 345.856 400.409-141.071 459.271-345.856c58.862-204.785-24.969-423.798-205.524-536.941-7.984-5.019-10.387-15.56-5.367-23.543s15.56-10.387 23.543-5.367c193.559 121.193 283.452 355.923 220.36 575.405s-263.913 370.643-492.283 370.549zM283.153-62.515c8.582-3.857 18.667-0.040 22.545 8.533l11.947 26.59 194.355 64.87 194.372-64.853 11.947-26.59c2.368-5.756 7.683-9.767 13.868-10.465s12.26 2.026 15.852 7.109 4.132 11.719 1.409 17.316l-187.733 418.833c30.162 21.576 42.936 60.163 31.607 95.474s-44.169 59.263-81.254 59.263-69.924-23.952-81.254-59.263c-11.33-35.312 1.444-73.898 31.607-95.474l-187.733-418.833c-3.843-8.555-0.062-18.608 8.465-22.511zM336.589 14.985l31.59 70.434 89.856-29.952zM458.428 286.737l22.784-15.172-42.172-28.092zM569.242 154.59l48.742 15.223 15.872-35.413zM609.963 106.121l-97.963-32.666-97.963 32.666 97.963 30.601zM584.96 243.473l-42.24 28.092 22.784 15.172zM592.333 197.564l-80.333-25.088-80.333 25.088 80.333 53.504zM406.016 169.813l48.742-15.241-64.614-20.156zM565.965 55.467l89.856 29.952 31.59-70.434zM512 499.2c23.987-0.128 44.67-16.892 49.761-40.332s-6.774-47.274-28.547-57.34c-0.137 0-0.256 0-0.375-0.085s-0.444-0.358-0.7-0.495c-12.854-5.541-27.423-5.541-40.277 0-0.273 0.119-0.427 0.358-0.7 0.478s-0.239 0-0.375 0.085c-21.794 10.055-33.677 33.9-28.584 57.355s25.796 40.224 49.798 40.334zM512 362.667c6.245 0.042 12.466 0.768 18.551 2.167l20.855-46.541-39.407-26.231-39.407 26.231 20.855 46.524c6.087-1.393 12.308-2.114 18.551-2.15z" />
<glyph unicode="&#xe903;" glyph-name="building" d="M205.545 755.392l258.101-78.377 12.891 42.449-276.506 83.964-122.888-70.914 22.173-38.423zM205.545 677.106l258.101-78.377 12.891 42.449-276.506 83.964-122.888-70.914 22.173-38.423zM205.545 598.82l258.101-78.377 12.891 42.449-276.506 83.964-122.888-70.914 22.173-38.423zM205.545 520.534l258.101-78.377 12.891 42.449-276.506 83.964-122.888-70.914 22.173-38.423zM205.545 442.249l258.101-78.377 12.891 42.449-276.506 83.964-122.888-70.911 22.171-38.423zM205.545 363.963l258.101-78.377 12.891 42.449-276.506 83.964-122.888-70.911 22.171-38.423zM205.545 285.677l258.101-78.377 12.891 42.449-276.506 83.964-122.888-70.911 22.171-38.423zM205.545 207.391l258.101-78.377 12.891 42.449-276.506 83.964-122.888-70.911 22.171-38.423zM627.156 755.392l258.101-78.377 12.888 42.449-276.506 83.964-122.885-70.914 22.171-38.423zM627.156 833.678l258.101-78.377 12.888 42.449-276.506 83.964-122.885-70.914 22.171-38.423zM627.156 911.964l258.101-78.377 12.888 42.449-276.506 83.964-122.885-70.914 22.171-38.423zM627.156 677.106l258.101-78.377 12.888 42.449-276.506 83.964-122.885-70.914 22.171-38.423zM627.156 598.82l258.101-78.377 12.888 42.449-276.506 83.964-122.885-70.914 22.171-38.423zM627.156 520.534l258.101-78.377 12.888 42.449-276.506 83.964-122.885-70.914 22.171-38.423zM627.156 442.249l258.101-78.377 12.888 42.449-276.506 83.964-122.885-70.911 22.171-38.423zM627.156 363.963l258.101-78.377 12.888 42.449-276.506 83.964-122.885-70.911 22.171-38.423zM627.156 285.677l258.101-78.377 12.888 42.449-276.506 83.964-122.885-70.911 22.171-38.423zM627.156 207.391l258.101-78.377 12.888 42.449-276.506 83.964-122.885-70.911 22.171-38.423zM885.734-21.572v73.878l12.411 40.87-276.506 83.964-122.888-70.911 12.411-21.505v-106.297h-47.037v73.878l12.411 40.87-276.506 83.964-122.888-70.911 12.408-21.505v-106.297h-65.533v-42.428h975.964v42.428h-114.248zM263.789-21.572v90.196l135.489-32.517v-57.678h-135.489zM685.403-21.572v90.196l135.487-32.517v-57.678h-135.487z" />
<glyph unicode="&#xe904;" glyph-name="team" d="M159.182 746.674c11.33-8.644 27.514-6.468 36.161 4.855 76.097 99.7 191.512 156.875 316.657 156.875s240.561-57.179 316.657-156.875c5.079-6.651 12.757-10.143 20.528-10.143 5.454 0 10.961 1.724 15.632 5.289 11.323 8.647 13.495 24.835 4.855 36.161-85.944 112.592-216.309 177.166-357.673 177.166s-271.729-64.574-357.669-177.166c-8.644-11.326-6.472-27.514 4.851-36.161zM786.229 609.061c0-44.425 36.147-80.572 80.572-80.572s80.572 36.147 80.572 80.572-36.147 80.572-80.572 80.572-80.572-36.143-80.572-80.572zM949.258 501.751c-0.186 0.062-20.487 6.292-20.487 6.292-7.351 2.245-15.336 0.862-21.49-3.744l-40.481-30.31-40.481 30.31c-6.158 4.61-14.146 5.992-21.49 3.744 0 0-20.301-6.23-20.487-6.292-32.665-10.892-54.61-41.339-54.61-75.769v-121.808c0-4.699 1.372-9.295 3.958-13.219l40.85-62.167v-163.261c0-13.298 10.778-24.076 24.076-24.076h136.371c13.298 0 24.076 10.778 24.076 24.076v163.261l40.85 62.167c2.582 3.927 3.958 8.523 3.958 13.219v121.808c0 34.43-21.949 64.877-54.613 75.769zM157.2 528.489c44.425 0 80.572 36.147 80.572 80.572s-36.147 80.572-80.572 80.572-80.575-36.143-80.575-80.572 36.147-80.572 80.575-80.572zM239.657 501.751c-0.186 0.062-20.487 6.292-20.487 6.292-7.354 2.245-15.332 0.862-21.49-3.744l-40.481-30.31-40.481 30.31c-6.154 4.61-14.146 5.992-21.49 3.744 0 0-20.301-6.23-20.487-6.292-32.665-10.892-54.61-41.339-54.61-75.769v-121.808c0-4.699 1.372-9.295 3.958-13.219l40.85-62.167v-163.261c0-13.298 10.778-24.076 24.076-24.076h136.368c13.298 0 24.076 10.778 24.076 24.076v163.261l40.85 62.167c2.582 3.927 3.958 8.523 3.958 13.219v121.808c0 34.43-21.949 64.877-54.61 75.769zM615.924 722.615c0 57.303-46.621 103.924-103.924 103.924s-103.924-46.621-103.924-103.924c0-57.306 46.621-103.924 103.924-103.924s103.924 46.618 103.924 103.924zM626.147 568.325l-0.172 0.055-29.662 9.102c-4.679 1.438-9.678-1.038-11.361-5.654l-62.371-171.132c-3.6-9.871-17.56-9.871-21.159 0l-62.371 171.132c-1.358 3.727-4.875 6.065-8.647 6.065-0.893 0-32.34-9.499-32.34-9.499-37.891-12.626-63.205-47.752-63.205-87.471v-181.031c0-1.796 0.528-3.555 1.514-5.058l65.081-99.035v-250.587c0-5.089 4.124-9.213 9.213-9.213h202.673c5.089 0 9.213 4.124 9.213 9.213v250.587l65.081 99.035c0.986 1.503 1.514 3.262 1.514 5.058v181.507c-0.003 39.546-25.417 74.614-62.998 86.926zM536.369 571.928c-2.576 2.807-6.344 4.22-10.157 4.22h-28.427c-3.81 0-7.578-1.414-10.157-4.22-3.989-4.348-4.568-10.626-1.738-15.532l15.195-22.907-7.113-60.009 14.008-37.264c1.365-3.748 6.665-3.748 8.033 0l14.008 37.264-7.113 60.009 15.195 22.907c2.834 4.906 2.255 11.185-1.734 15.532z" />
<glyph unicode="&#xe905;" glyph-name="premium" d="M945.487 89.938c0 0-113.654 195.336-134.041 230.37 23.195 7.076 47.904 13.324 58.171 31.052 17.11 29.538-13.347 77.993-5.349 109.653 8.238 32.585 56.87 60.78 56.87 93.902 0 32.269-50.278 69.968-58.522 102.361-8.053 31.655 22.312 80.162 5.147 109.664-17.165 29.505-74.34 27.080-97.876 49.728-24.216 23.306-24.142 80.328-53.35 95.947-29.328 15.677-76.991-16.006-109.553-8.501-32.192 7.419-60.952 55.888-94.577 55.888-34.123 0-88.398-54.98-96.91-56.959-32.546-7.566-80.27 24.039-109.567 8.296-29.181-15.671-29.001-72.699-53.173-96.044-23.497-22.689-80.674-20.37-97.787-49.908-17.11-29.532 13.347-77.976 5.352-109.653-8.017-31.757-58.342-63.935-58.342-100.662 0-33.124 48.754-61.231 57.042-93.799 8.056-31.655-22.31-80.157-5.144-109.67 9.345-16.064 30.548-22.658 51.723-28.998 2.471-0.739 7.145-3.503 3.979-8.116-14.487-25.005-131.086-226.238-131.086-226.238-9.276-16.006-1.743-29.726 16.734-30.504l90.443-3.772c18.477-0.778 41.656-14.204 51.518-29.848l48.261-76.581c9.863-15.643 25.511-15.35 34.785 0.653 0 0 135.034 233.131 135.090 233.198 2.709 3.166 5.432 2.515 6.736 1.409 14.774-12.58 35.371-25.13 52.561-25.13 16.858 0 32.468 11.813 47.91 24.988 1.256 1.071 4.314 3.265 6.55-1.29 0.036-0.072 134.921-231.928 134.921-231.928 9.298-15.984 24.95-16.255 34.782-0.592l48.126 76.673c9.835 15.654 32.989 29.134 51.466 29.939l90.434 3.941c18.469 0.811 25.976 14.55 16.678 30.531zM661.875 299.644c-99.998-58.176-220.028-51.942-311.708 5.886-134.337 86.048-178.539 264.050-97.781 403.435 81.679 140.992 261.227 190.742 403.49 113.262 0.747-0.407 1.486-0.827 2.228-1.243 1.054-0.584 2.106-1.176 3.155-1.774 43.889-25.304 81.947-62.028 109.199-108.87 83.289-143.167 34.583-327.407-108.582-410.696zM639.007 777.075c-0.415 0.241-0.836 0.465-1.251 0.703-75.995 43.983-172.855 47.199-254.032-0.030-120.465-70.084-161.456-225.103-91.372-345.565 21.385-36.76 50.691-66.105 84.501-87.163 2.875-1.821 5.784-3.611 8.756-5.333 120.595-69.865 275.531-28.594 345.394 91.995 69.86 120.595 28.6 275.529-91.995 345.394zM669.175 579.932l-42.226-41.158c-13.078-12.746-21.253-37.906-18.162-55.907l9.968-58.115c3.088-18.001-7.61-25.774-23.776-17.276l-52.193 27.44c-16.166 8.498-42.619 8.498-58.785 0l-52.191-27.44c-16.166-8.498-26.867-0.725-23.779 17.276l9.968 58.115c3.088 18.001-5.086 43.161-18.164 55.907l-42.223 41.158c-13.081 12.746-8.991 25.326 9.082 27.955l58.351 8.479c18.073 2.626 39.475 18.175 47.558 34.552l26.095 52.874c8.083 16.377 21.311 16.377 29.391 0l26.098-52.874c8.083-16.377 29.482-31.926 47.558-34.552l58.351-8.479c18.070-2.629 22.158-15.209 9.079-27.955z" />
<glyph unicode="&#xe906;" glyph-name="call" d="M709.53 956.918c-173.677 0-314.468-111.427-314.468-248.881 0-81.888 50.194-154.313 127.316-199.668-7.543-41.353-31.562-90.072-65.148-123.66 82 6.121 154.172 29.634 201.428 77.993 16.6-2.142 33.511-3.546 50.874-3.546 173.678 0 314.47 111.427 314.47 248.881-0.002 137.452-140.795 248.881-314.472 248.881zM562.117 658.9c-27.138 0-49.137 21.999-49.137 49.139 0 27.138 21.999 49.139 49.137 49.139s49.137-22.001 49.137-49.139c0-27.141-21.999-49.139-49.137-49.139zM709.53 658.9c-27.138 0-49.137 21.999-49.137 49.139 0 27.138 21.999 49.139 49.137 49.139 27.139 0 49.137-22.001 49.137-49.139 0-27.141-21.999-49.139-49.137-49.139zM856.942 658.9c-27.139 0-49.137 21.999-49.137 49.139 0 27.138 21.999 49.139 49.137 49.139 27.139 0 49.139-22.001 49.139-49.139 0-27.141-21.999-49.139-49.139-49.139zM648.495 135.329c-99.704 80.128-127.585 40.739-172.825-4.494-31.582-31.595-111.509 34.383-180.52 103.399-69.016 69.023-134.979 148.935-103.399 180.523 45.242 45.235 84.619 73.132 4.467 172.807-80.125 99.715-133.537 23.16-177.359-20.666-50.593-50.576-2.665-239.050 183.609-425.358 186.301-186.278 374.776-234.173 425.34-183.617 43.816 43.831 120.394 97.236 20.687 177.406zM124.453 533.504c-1.345-0.55-3.32-1.359-5.831-2.386-4.754-1.82-10.437-3.882-16.764-6.634-2.952-1.422-6.261-2.962-9.28-4.859-3.131-1.869-6.241-3.989-9.045-6.611-3.064-2.48-5.445-5.649-8.2-8.97-2.048-3.663-4.692-7.406-6.119-11.903-2.073-4.257-2.816-9.161-4.054-13.985-0.954-4.894-1.119-9.981-1.727-14.95-0.062-10.041 0.328-19.685 1.621-27.904 0.676-8.356 2.798-15.415 3.634-20.308 1.026-4.909 1.61-7.712 1.61-7.712s-1.508 2.438-4.146 6.706c-2.501 4.399-6.748 10.049-10.476 18.082-4.297 7.811-8.304 17.421-12.117 28.234-1.357 5.578-3.197 11.364-4.216 17.567-0.718 6.268-1.904 12.733-1.427 19.541-0.206 6.797 1.185 13.665 2.448 20.605 2.010 6.725 4.15 13.54 7.429 19.603 2.995 6.198 6.766 11.808 10.534 16.699 3.791 5.041 7.703 9.167 11.391 13.006 7.357 7.238 13.745 12.527 17.467 15.773 2.13 1.784 3.002 2.749 3.952 3.596 0.84 0.786 1.288 1.206 1.288 1.206l34.192-53.477c0.005 0-0.75-0.32-2.163-0.92zM637.602 25.483c-3.355-4.176-8.615-10.637-15.75-17.957-3.802-3.604-7.724-7.509-12.606-11.199-4.571-3.82-10.131-7.317-15.792-10.598-5.836-3.209-12.045-5.96-18.603-8.006-6.49-1.978-13.227-3.572-19.841-4.111l-9.838-0.703-9.544 0.514c-6.28 0.082-12.129 1.755-17.763 2.692-5.619 1.042-10.714 3.131-15.593 4.529-4.879 1.317-9.254 3.723-13.302 5.324-8.199 3.254-14.072 7.016-18.501 9.343-4.35 2.399-6.833 3.768-6.833 3.768s2.803-0.432 7.708-1.183c4.874-0.654 11.99-2.194 20.231-2.359 4.15-0.085 8.406-0.81 13.123-0.373 4.655 0.363 9.51 0.127 14.369 0.997 4.826 0.967 9.833 1.242 14.48 2.997l6.981 2.14 6.475 3.027c17.097 8.281 26.398 22.869 31.789 35.049 2.667 6.281 4.576 11.826 6.019 16.166 1.569 4.568 2.465 7.176 2.465 7.176l55.383-31.013c-0.003-0.002-1.842-2.267-5.058-6.221z" />
<glyph unicode="&#xe907;" glyph-name="receipt" d="M866.46 960h-708.922c-10.876 0-19.692-8.818-19.692-19.692v-984.614c0-7.096 3.818-13.64 9.99-17.134 6.174-3.5 13.752-3.398 19.834 0.25l87.106 52.264 68.178-51.134c6.404-4.808 15.076-5.25 21.948-1.13l87.106 52.264 68.178-51.134c6.402-4.808 15.080-5.25 21.948-1.13l87.106 52.264 68.178-51.134c6.404-4.808 15.080-5.25 21.948-1.13l87.106 52.264 68.178-51.134c3.474-2.606 7.632-3.938 11.818-3.938 3.002 0 6.016 0.688 8.806 2.078 6.67 3.336 10.884 10.16 10.884 17.616v984.612c-0.004 10.874-8.822 19.692-19.698 19.692zM846.768-4.922l-47.262 35.448c-6.406 4.808-15.084 5.254-21.948 1.13l-87.106-52.264-68.178 51.134c-3.486 2.616-7.644 3.938-11.818 3.938-3.496 0-7-0.928-10.13-2.808l-87.106-52.264-68.178 51.134c-6.406 4.808-15.082 5.254-21.948 1.13l-87.106-52.264-68.178 51.134c-6.406 4.808-15.084 5.254-21.948 1.13l-68.636-41.182v930.142h669.538v-925.538zM354.462 782.77h-98.462c-10.874 0-19.692-8.818-19.692-19.692 0-10.876 8.818-19.692 19.692-19.692h98.462c10.876 0 19.692 8.818 19.692 19.692s-8.818 19.692-19.692 19.692zM728.614 684.308h-98.462c-10.876 0-19.692-8.818-19.692-19.692 0-10.876 8.818-19.692 19.692-19.692h98.462c10.876 0 19.692 8.818 19.692 19.692 0.002 10.874-8.816 19.692-19.692 19.692zM728.614 585.846h-98.462c-10.876 0-19.692-8.818-19.692-19.692 0-10.876 8.818-19.692 19.692-19.692h98.462c10.876 0 19.692 8.818 19.692 19.692 0.002 10.876-8.816 19.692-19.692 19.692zM728.614 487.386h-98.462c-10.876 0-19.692-8.818-19.692-19.692 0-10.876 8.818-19.692 19.692-19.692h98.462c10.876 0 19.692 8.818 19.692 19.692 0.002 10.874-8.816 19.692-19.692 19.692zM728.614 388.924h-98.462c-10.876 0-19.692-8.818-19.692-19.692 0-10.876 8.818-19.692 19.692-19.692h98.462c10.876 0 19.692 8.818 19.692 19.692 0.002 10.874-8.816 19.692-19.692 19.692zM728.614 290.462h-98.462c-10.876 0-19.692-8.818-19.692-19.692 0-10.876 8.818-19.692 19.692-19.692h98.462c10.876 0 19.692 8.818 19.692 19.692 0.002 10.876-8.816 19.692-19.692 19.692zM531.692 684.308h-275.692c-10.874 0-19.692-8.818-19.692-19.692 0-10.876 8.818-19.692 19.692-19.692h275.692c10.876 0 19.692 8.818 19.692 19.692s-8.816 19.692-19.692 19.692zM531.692 585.846h-275.692c-10.874 0-19.692-8.818-19.692-19.692 0-10.876 8.818-19.692 19.692-19.692h275.692c10.876 0 19.692 8.818 19.692 19.692 0 10.876-8.816 19.692-19.692 19.692zM531.692 487.386h-275.692c-10.874 0-19.692-8.818-19.692-19.692 0-10.876 8.818-19.692 19.692-19.692h275.692c10.876 0 19.692 8.818 19.692 19.692s-8.816 19.692-19.692 19.692zM531.692 388.924h-275.692c-10.874 0-19.692-8.818-19.692-19.692 0-10.876 8.818-19.692 19.692-19.692h275.692c10.876 0 19.692 8.818 19.692 19.692s-8.816 19.692-19.692 19.692zM531.692 290.462h-275.692c-10.874 0-19.692-8.818-19.692-19.692 0-10.876 8.818-19.692 19.692-19.692h275.692c10.876 0 19.692 8.818 19.692 19.692 0 10.876-8.816 19.692-19.692 19.692z" />
<glyph unicode="&#xe908;" glyph-name="tractor" d="M546.068 258c-1.396 2.314-2.221 5.107-2.221 8.094 0 0.19 0.003 0.379 0.010 0.567l-0.001-0.027c0 14.522 14.582 21.422 27.444 27.912 2.642 1.332 6.4 3.222 9.242 4.896-2.168 2.65-5.2 5.86-7.31 8.112-9.732 10.342-20.764 22.064-15.876 35.488 4.938 13.57 21.080 15.47 35.322 17.148 3 0.352 7.242 0.854 10.542 1.464-1.124 3.2-2.838 7.2-4.040 10-5.616 13.106-11.98 27.962-2.754 38.948s25 7.298 38.898 4.024c2.96-0.696 7.174-1.686 10.51-2.24 0.030 3.368-0.218 7.668-0.4 10.69-0.82 14.284-1.75 30.47 10.712 37.682 12.4 7.178 25.902-1.662 37.812-9.456 2.572-1.682 6.236-4.080 9.2-5.75 1.166 3.126 2.39 7.2 3.254 10.054 4.148 13.764 8.852 29.364 23.12 31.864 14.020 2.448 23.6-10.4 32.070-21.74 1.904-2.552 4.64-6.216 6.92-8.844 2.278 2.628 5.016 6.292 6.92 8.842 8.464 11.342 18.048 24.2 32.078 21.742 14.266-2.5 18.984-18.1 23.132-31.866 0.864-2.862 2.12-6.928 3.286-10.052 2.972 1.668 6.7 4.066 9.272 5.75 11.91 7.8 25.372 16.628 37.77 9.456 1.082-0.626 1-1.342 3-2.098v37.34h-477.13c-10.748 0-21.476 0.046-32.162-0.74l99.206-237.26zM134 696h22v-32h-22v32zM169.358 514h2.642v122h-56v-122h53.358zM820 750h30v-226h-30v226zM416 824h480v-46h-480v46zM156 451.162v34.838h-22v-47.108l22 12.27zM456 750h28v-226h-28v226zM230.922 298.652c-62.424-0.001-113.028-50.606-113.028-113.030s50.605-113.030 113.030-113.030c62.425 0 113.030 50.605 113.030 113.030v0c-0.073 62.396-50.636 112.958-113.025 113.030h-0.007zM230.922 108.108c-42.811 0-77.516 34.705-77.516 77.516s34.705 77.516 77.516 77.516c42.811 0 77.516-34.705 77.516-77.516 0-0.001 0-0.001 0-0.002v0c-0.049-42.791-34.725-77.466-77.511-77.514h-0.005zM230.922 235.138c-27.347 0-49.516-22.169-49.516-49.516s22.169-49.516 49.516-49.516c27.347 0 49.516 22.169 49.516 49.516v0c-0.033 27.334-22.182 49.483-49.513 49.516h-0.003zM926.504 294.072c-2.166 12.37 7.546 22.69 16.94 32.672 1.274 1.354 2.882 3.064 4.43 4.782-2.388 0.34-4.834 0.628-6.762 0.854-13.484 1.588-27.422 3.232-33.64 13.976-6.258 10.816-0.698 23.788 4.678 36.334 0.752 1.756 1.706 3.98 2.586 6.182-2.336-0.492-4.708-1.052-6.582-1.492-13.264-3.124-26.986-6.35-36.538 1.674s-8.728 22.052-7.946 35.638c0.11 1.928 0.25 4.374 0.33 6.77-2-1.238-3.986-2.546-5.566-3.58-11.438-7.484-23.264-15.228-35.032-10.944-11.628 4.234-15.668 17.636-19.574 30.6-0.566 1.88-1.286 4.27-2.048 6.586-1.4-1.8-2.79-3.656-3.89-5.128-8.228-11.030-16.738-22.434-29.356-22.434s-21.13 11.4-29.36 22.434c-1.098 1.472-2.484 3.328-3.888 5.13-0.762-2.316-1.484-4.708-2.050-6.588-3.906-12.962-7.944-26.364-19.574-30.6-11.764-4.282-23.6 3.458-35.030 10.942-1.58 1.034-3.576 2.342-5.568 3.58 0.080-2.4 0.222-4.84 0.332-6.77 0.78-13.584 1.586-27.632-7.944-35.638s-23.268-4.8-36.542-1.672c-1.87 0.44-4.244 1-6.582 1.49 0.882-2.2 1.836-4.426 2.588-6.182 5.376-12.544 10.934-25.518 4.676-36.332-6.216-10.744-20.158-12.388-33.638-13.976-1.93-0.226-4.378-0.514-6.762-0.854 1.546-1.72 3.156-3.43 4.432-4.786 9.4-9.98 19.102-20.3 16.938-32.666-2.13-12.16-14.6-18.45-26.65-24.53-1.86-0.938-4.252-2.144-6.518-3.368 2.266-1.222 4.658-2.43 6.518-3.368 12.054-6.080 24.52-12.368 26.65-24.528 2.164-12.368-7.548-22.688-16.938-32.668-1.276-1.356-2.886-3.066-4.432-4.784 2.386-0.34 4.832-0.628 6.762-0.856 13.48-1.588 27.422-3.23 33.638-13.974 6.258-10.816 0.7-23.79-4.678-36.334-0.752-1.756-1.706-3.98-2.586-6.18 2.336 0.49 4.712 1.050 6.582 1.49 13.27 3.122 26.988 6.348 36.54-1.672s8.726-22.054 7.944-35.64c-0.108-1.928-0.25-4.374-0.33-6.77 2 1.238 3.986 2.544 5.566 3.578 9.172 6 18.6 12.17 28.036 12.17 0.019 0 0.042 0 0.065 0 2.489 0 4.873-0.45 7.075-1.272l-0.14 0.046c11.63-4.232 15.668-17.634 19.574-30.6 0.566-1.882 1.288-4.274 2.050-6.588 1.4 1.8 2.8 3.656 3.888 5.128 8.23 11.028 16.74 22.432 29.36 22.432s21.126-11.4 29.354-22.43c1.1-1.474 2.486-3.33 3.892-5.13 0.762 2.314 1.482 4.706 2.048 6.588 3.906 12.96 7.946 26.362 19.574 30.6 11.756 4.286 23.588-3.458 35.030-10.944 1.58-1.034 3.576-2.342 5.568-3.58-0.080 2.4-0.22 4.844-0.332 6.772-0.78 13.584-1.586 27.632 7.946 35.638s23.268 4.8 36.538 1.672c1.874-0.44 4.248-1 6.584-1.49-0.882 2.2-1.836 4.426-2.588 6.182-5.374 12.544-10.934 25.516-4.678 36.332 6.22 10.746 20.158 12.388 33.642 13.976 1.928 0.226 4.374 0.516 6.762 0.856-1.548 1.716-3.156 3.426-4.43 4.782-9.4 9.98-19.106 20.302-16.942 32.67 2.13 12.16 14.6 18.448 26.65 24.528 1.86 0.938 4.252 2.144 6.518 3.368-2.266 1.224-4.658 2.43-6.518 3.368-12.058 6.082-24.524 12.37-26.652 24.528zM768.534 149.138c-0.001 0-0.001 0-0.002 0-64.639 0-117.040 52.401-117.040 117.040s52.401 117.040 117.040 117.040c64.639 0 117.040-52.401 117.040-117.040v0c-0.076-64.608-52.43-116.963-117.031-117.040h-0.007zM768.534 295.348c-16.11 0-29.17-13.060-29.17-29.17s13.060-29.17 29.17-29.17c16.11 0 29.17 13.060 29.17 29.17v0c-0.017 16.103-13.067 29.153-29.168 29.17h-0.002zM768.534 355.216c-0.001 0-0.001 0-0.002 0-49.175 0-89.040-39.865-89.040-89.040s39.865-89.040 89.040-89.040c49.175 0 89.040 39.865 89.040 89.040 0 0.001 0 0.001 0 0.002v0c-0.058 49.151-39.887 88.98-89.032 89.038h-0.006zM768.534 209.016c-31.574 0-57.17 25.596-57.17 57.17s25.596 57.17 57.17 57.17c31.574 0 57.17-25.596 57.17-57.17v0c-0.027-31.566-25.605-57.15-57.166-57.186h-0.004zM557.356 189.4c-4.888 13.426 6.144 25.518 15.876 35.86 1.396 1.436 2.698 2.983 3.884 4.619l0.084 0.121h-112.634c-0.134-0.005-0.291-0.007-0.448-0.007-5.515 0-10.255 3.321-12.328 8.073l-0.034 0.087-105.89 253.542c-59.364-8.545-112.82-27.732-160.547-55.651l2.081 1.125-123.4-71.354v-191.814h26.388c-0.3 4-0.496 7.658-0.496 11.478-0.001 0.158-0.001 0.344-0.001 0.531 0 77.89 63.142 141.032 141.032 141.032s141.032-63.142 141.032-141.032c0-0.187 0-0.373-0.001-0.56v0.029c0-3.82-0.2-7.478-0.496-11.478h207.116c-9.482 2-17.892 6.262-21.218 15.4z" />
<glyph unicode="&#xe909;" glyph-name="home" d="M409.6 12.8v307.2h204.8v-307.2h256v409.6h153.6l-512 460.8-512-460.8h153.6v-409.6z" />
<glyph unicode="&#xe90a;" glyph-name="eye" d="M512 753.2c-195.646 0-373.068-107.040-503.988-280.901-10.683-14.244-10.683-34.144 0-48.388 130.92-174.071 308.342-281.11 503.988-281.11s373.068 107.040 503.988 280.901c10.683 14.244 10.683 34.144 0 48.388-130.92 174.071-308.342 281.11-503.988 281.11zM526.035 233.083c-129.872-8.169-237.121 98.87-228.952 228.952 6.703 107.249 93.634 194.18 200.883 200.883 129.872 8.169 237.121-98.87 228.952-228.952-6.913-107.040-93.843-193.97-200.883-200.883zM519.541 332.372c-69.963-4.399-127.777 53.206-123.169 123.169 3.561 57.814 50.483 104.526 108.297 108.297 69.963 4.399 127.777-53.206 123.169-123.169-3.77-58.024-50.692-104.736-108.297-108.297z" />
<glyph unicode="&#xe90b;" glyph-name="download" d="M770.2 652.881c-9.795 0-19.558-0.557-29.236-1.674-11.664 48.164-37.278 92.034-74.247 126.273-47.037 43.565-108.265 67.558-172.413 67.558-118.020 0-218.614-80.591-246.289-192.224-137.29-3.077-248.015-115.719-248.015-253.733 0-139.955 113.857-253.809 253.8-253.809h148.925l40.917-58.651c15.577-22.33 41.131-35.661 68.358-35.661s52.781 13.331 68.36 35.664l40.915 58.649h148.925c139.945 0 253.8 113.855 253.8 253.809 0 139.945-113.855 253.8-253.8 253.8zM660.454 280.712l-119.155-170.808c-6.682-9.576-17.62-15.284-29.298-15.284-11.676 0-22.616 5.708-29.298 15.284l-119.155 170.81c-7.613 10.916-8.528 25.159-2.372 36.959s18.361 19.201 31.67 19.201h50.095v147.987c0 19.727 15.993 35.721 35.721 35.721h66.679c19.727 0 35.721-15.993 35.721-35.721v-147.987h50.095c13.31 0 25.514-7.401 31.67-19.201 6.156-11.805 5.241-26.045-2.372-36.962z" />
<glyph unicode="&#xe90c;" glyph-name="pointer" d="M747.6 328.12c-15.99-25.758-33.407-52.586-52.274-80.462 158.806-23.751 240.094-74.642 240.094-99.931 0-33.697-144.043-112.71-423.409-112.71-279.388 0-423.453 79.013-423.453 112.71 0 25.312 81.288 76.181 240.138 99.931-18.889 27.876-36.306 54.705-52.296 80.462-156.754-29.594-276.4-90.342-276.4-180.416 0-132.134 257.6-201.245 512.011-201.245s511.989 69.133 511.989 201.245c0 90.074-119.623 150.822-276.4 180.416zM512.033 156.112c23.015 0 44.669 10.95 58.273 29.549 87.086 118.865 241.142 345.846 241.142 464.465 0 165.385-134.074 299.437-299.437 299.437-165.407 0-299.437-134.052-299.437-299.437 0-118.597 154.011-345.6 241.12-464.465 13.671-18.599 35.325-29.549 58.34-29.549zM387.459 656.036c0 68.777 55.753 124.529 124.552 124.529 68.777 0 124.529-55.753 124.529-124.529s-55.753-124.529-124.529-124.529c-68.799-0.022-124.552 55.73-124.552 124.529z" />
<glyph unicode="&#xe90d;" glyph-name="menu" d="M0 106.667h1024v113.778h-1024v-113.778zM0 391.111h1024v113.778h-1024v-113.778zM0 789.333v-113.778h1024v113.778h-1024z" />
<glyph unicode="&#xe90e;" glyph-name="arrow" d="M220.146 448.008c0 18.345 7.005 36.695 20.983 50.687l440.308 440.297c28.009 28.009 73.42 28.009 101.417 0 27.997-27.997 27.997-73.399 0-101.41l-389.603-389.574 389.576-389.589c27.997-27.997 27.997-73.406 0-101.401-27.997-28.022-73.395-28.022-101.404 0l-440.31 440.29c-13.976 13.999-20.967 32.349-20.967 50.701z" />
<glyph unicode="&#xe90f;" glyph-name="arrow-1" d="M782.857 397.307l-440.304-440.29c-28.009-28.022-73.42-28.022-101.415 0-27.997 27.997-27.997 73.406 0 101.401l389.601 389.589-389.589 389.576c-27.997 28.009-27.997 73.413 0 101.41 27.997 28.009 73.406 28.009 101.415 0l440.304-440.297c13.999-14.005 20.99-32.342 20.99-50.687 0-18.354-7.005-36.704-21.001-50.703z" />
<glyph unicode="&#xe910;" glyph-name="bell" d="M390.612 58.211c-0.002-0.268-0.020-0.533-0.020-0.8 0-67.053 54.357-121.411 121.411-121.411s121.411 54.357 121.411 121.411c0 0.268-0.018 0.533-0.020 0.8h-242.781zM899.638 209.974l-109.27 160.515c0 49.136 0 169.201 0 200.259 0 135.054-96.182 247.63-223.781 273v61.667c-0.002 30.145-24.44 54.585-54.587 54.585s-54.585-24.44-54.585-54.585v-61.67c-127.599-25.372-223.781-137.948-223.781-273 0-52.87 0-169.615 0-200.259l-109.27-160.515c-11.51-16.907-12.727-38.792-3.163-56.872s28.339-29.387 48.793-29.387h684.012c20.454 0 39.229 11.309 48.793 29.387 9.566 18.082 8.347 39.967-3.161 56.874z" />
<glyph unicode="&#xe911;" glyph-name="back" d="M512 960c-282.785 0-512-229.215-512-512s229.215-512 512-512c282.751 0 512 229.215 512 512s-229.215 512-512 512zM657.152 220.128c12.512-12.512 12.512-32.768 0-45.247-12.512-12.48-32.768-12.48-45.248 0l-245.024 245.022c-7.68 7.68-10.048 18.176-8.287 28.128-1.76 9.92 0.639 20.448 8.287 28.128l245.024 245.024c12.514 12.512 32.768 12.512 45.248 0 12.512-12.479 12.512-32.768 0-45.247l-227.904-227.937 227.904-227.872z" />
<glyph unicode="&#xe912;" glyph-name="out" d="M960.884 960h-352.097c-34.804 0-63.116-28.316-63.116-63.116s28.312-63.116 63.116-63.116h199.724l-333.162-333.158c-11.927-11.92-18.491-27.767-18.491-44.632s6.56-32.708 18.484-44.618c11.924-11.934 27.767-18.502 44.632-18.502 16.857 0 32.708 6.564 44.636 18.491l333.158 333.162v-199.724c0-34.8 28.316-63.116 63.116-63.116s63.116 28.316 63.116 63.116v352.097c0 34.8-28.316 63.116-63.116 63.116zM725.426 44.199h-617.227v617.227h464.212l108.199 108.199h-626.51c-29.877 0-54.099-24.222-54.099-54.099v-725.426c0-29.877 24.222-54.099 54.099-54.099h725.426c29.877 0 54.099 24.222 54.099 54.099v626.51l-108.199-108.199v-464.212z" />
</font>
</defs>
</svg>
